<svg width="171" height="54" viewBox="0 0 171 54" fill="none" xmlns="http://www.w3.org/2000/svg">
<g clip-path="url(#clip0_507_54)">
<path d="M27 4.5C27.3704 4.49994 27.735 4.5913 28.0615 4.76596C28.3881 4.94062 28.6665 5.19319 28.872 5.50125L41.931 25.092L30.1703 29.9925L27.4478 10.0192C27.3758 9.50175 26.6243 9.50175 26.5545 10.0192L23.832 29.9925L12.069 25.092L25.128 5.50125C25.3336 5.19319 25.612 4.94062 25.9385 4.76596C26.2651 4.5913 26.6297 4.49994 27 4.5ZM27.8663 35.8268L40.9568 30.3727L28.8743 48.4987C28.6689 48.8074 28.3904 49.0605 28.0636 49.2355C27.7368 49.4106 27.3719 49.5022 27.0011 49.5022C26.6304 49.5022 26.2654 49.4106 25.9387 49.2355C25.6119 49.0605 25.3334 48.8074 25.128 48.4987L13.0455 30.3727L26.1338 35.8268C26.4082 35.9412 26.7026 36.0002 27 36.0002C27.2974 36.0002 27.5918 35.9412 27.8663 35.8268Z" fill="url(#paint0_linear_507_54)"/>
</g>
<path d="M67.28 39V35.8H55.728V29.656H65.296V26.456H55.728V20.76H67.28V17.56H52.112V39H67.28ZM75.145 39.352C77.417 39.352 78.953 38.296 79.625 37.304L78.505 34.104C78.057 35 77.161 35.992 75.945 35.992C74.889 35.992 74.089 35.576 74.089 33.88V26.2H78.857V23.416H74.089V19.256L70.505 21.528V23.416H68.073V26.2H70.505V34.744C70.505 37.496 72.201 39.352 75.145 39.352ZM85.6283 39V30.264C85.6283 27.704 86.5243 26.008 89.1483 26.008C91.5483 26.008 92.1883 27.32 92.1883 29.24V39H95.8043V28.152C95.8043 24.92 93.9483 23.096 90.9083 23.096C87.8043 23.096 86.2043 25.208 85.6283 27.672V17.56H82.0443V39H85.6283ZM106.331 39.32C109.787 39.32 111.899 37.752 113.083 35.96L110.875 33.656C110.299 34.968 109.083 36.376 106.363 36.376C103.899 36.376 102.267 34.872 102.075 32.088H113.211C113.275 31.768 113.339 31.096 113.339 30.52C113.339 26.2 110.747 23.096 106.075 23.096C101.691 23.096 98.6513 26.328 98.6513 31.224C98.6513 36.088 101.691 39.32 106.331 39.32ZM106.075 25.976C108.443 25.976 109.851 27.32 110.107 29.784H102.107C102.395 27.256 103.867 25.976 106.075 25.976ZM120.066 39V30.424C120.066 27.832 121.73 25.784 123.522 25.784C124.578 25.784 124.994 26.488 124.994 27.352C124.994 28.248 124.514 29.272 124.002 29.784H127.682C127.97 29.304 128.386 28.184 128.386 26.68C128.386 24.376 126.946 23.096 124.994 23.096C122.21 23.096 120.642 25.336 120.066 27.832V23.416H116.482V39H120.066ZM134.285 21.208V17.56H130.701V21.208H134.285ZM134.285 39V23.416H130.701V39H134.285ZM141.66 39V30.264C141.66 27.704 142.556 26.008 145.18 26.008C147.58 26.008 148.22 27.32 148.22 29.24V39H151.836V28.152C151.836 24.92 149.98 23.096 146.94 23.096C143.836 23.096 142.236 25.208 141.66 27.672V23.416H138.076V39H141.66ZM162.01 39.32C166.555 39.32 169.627 36.056 169.627 31.224C169.627 26.36 166.555 23.096 162.01 23.096C157.531 23.096 154.459 26.36 154.459 31.224C154.459 36.056 157.531 39.32 162.01 39.32ZM162.043 36.344C159.739 36.344 158.139 34.808 158.139 31.224C158.139 27.608 159.739 26.072 162.043 26.072C164.379 26.072 165.979 27.608 165.979 31.224C165.979 34.808 164.379 36.344 162.043 36.344Z" fill="url(#paint1_linear_507_54)"/>
<defs>
<linearGradient id="paint0_linear_507_54" x1="27" y1="4.5" x2="27" y2="49.5022" gradientUnits="userSpaceOnUse">
<stop stop-color="white"/>
<stop offset="1" stop-color="white" stop-opacity="0"/>
</linearGradient>
<linearGradient id="paint1_linear_507_54" x1="110.5" y1="10" x2="110.5" y2="50" gradientUnits="userSpaceOnUse">
<stop stop-color="white"/>
<stop offset="1" stop-color="white" stop-opacity="0"/>
</linearGradient>
<clipPath id="clip0_507_54">
<rect width="54" height="54" fill="white"/>
</clipPath>
</defs>
</svg>
